<?xml version="1.0" encoding="UTF-8"?>
<svg xmlns="http://www.w3.org/2000/svg" xmlns:xlink="http://www.w3.org/1999/xlink" fill="#000000" height="28px" width="28px" version="1.1" id="Capa_1" viewBox="0 0 487.4 487.4" xml:space="preserve">
<g>
	<path d="M103.4,196.55c13.4,0,24.3,10.9,24.3,24.3c0,13.4-10.9,24.3-24.3,24.3s-24.3-10.9-24.3-24.3   C79.1,207.45,90,196.55,103.4,196.55z M463.4,329.25H350.9c-5.2,0-9.5,4.2-9.5,9.5v15.2c0,5.2,4.2,9.5,9.5,9.5h112.5   c5.2,0,9.5-4.2,9.5-9.5v-15.2C472.9,333.55,468.6,329.25,463.4,329.25z M447.3,375.75H334.8c-5.2,0-9.5,4.2-9.5,9.5v15.2   c0,5.2,4.2,9.5,9.5,9.5h112.5c5.2,0,9.5-4.2,9.5-9.5v-15.2C456.7,379.95,452.5,375.75,447.3,375.75z M477.9,236.35H365.4   c-5.2,0-9.5,4.2-9.5,9.5v15.2c0,5.2,4.2,9.5,9.5,9.5h112.5c5.2,0,9.5-4.2,9.5-9.5v-15.2C487.4,240.65,483.1,236.35,477.9,236.35z    M325.3,292.25v15.2c0,5.2,4.2,9.5,9.5,9.5h112.5c5.2,0,9.5-4.2,9.5-9.5v-15.2c0-5.2-4.2-9.5-9.5-9.5H334.8   C329.6,282.85,325.3,287.05,325.3,292.25z M469.2,224.05c5.2,0,9.5-4.2,9.5-9.5v-15.2c0-5.2-4.2-9.5-9.5-9.5H356.8   c-5.2,0-9.5,4.2-9.5,9.5v15.2c0,5.2,4.2,9.5,9.5,9.5H469.2z M330.5,355.75v-18.8c0-4.2-3.4-7.7-7.7-7.7h-45.7h-196   c1.1-6,1-12.5-1.1-19.2c-3.3-10.7-11.2-19.5-21.2-24.5c-8.7-4.4-17-5-24.6-3.6v-122.9c9.1,1.6,19.2,0.5,29.8-6.7   c6.4-4.3,11.6-10.4,14.6-17.6c3.4-8.1,3.8-15.9,2.5-23.1h297.2c-1.5,6-1.7,12.5-0.1,19.2c3.5,15,15.6,26.9,30.7,30.2   c6.6,1.4,12.9,1.2,18.7-0.3v9.5c0,4.3,3.5,7.8,7.8,7.8H454c4.3,0,7.8-3.5,7.8-7.8v-52.8c0-22.1-17.9-40-40-40H40   c-22.1,0-40,17.9-40,40v205.8c0,22.1,17.9,40,40,40h237.1h45.7l0,0C327.1,363.45,330.5,360.05,330.5,355.75z M230.8,132.95   c48.3,0,87.6,39.3,87.6,87.6s-39.3,87.6-87.6,87.6s-87.6-39.3-87.6-87.6S182.5,132.95,230.8,132.95z M258.7,183.95l-39.2,39   l-16.4-16.5l-17.1,17l16.4,16.5l17,17.1l17.1-17l39.2-39L258.7,183.95z"/>
</g>
</svg>