<?xml version="1.0" encoding="iso-8859-1"?>
<!-- Generator: Adobe Illustrator 19.0.0, SVG Export Plug-In . SVG Version: 6.00 Build 0)  -->
<svg version="1.1" id="Capa_1" xmlns="http://www.w3.org/2000/svg" xmlns:xlink="http://www.w3.org/1999/xlink" x="0px" y="0px"
	 viewBox="0 0 490 490" style="enable-background:new 0 0 490 490;" xml:space="preserve">
<g>
	<g>
		<path d="M77.8,130.7h334.4c16.7,0,29.9-13.6,29.9-29.9V42c0.4-16.7-13.2-30.3-29.9-30.3H77.8c-16.7,0-29.9,13.6-29.9,29.9v59.1
			C47.8,117.4,61.4,130.7,77.8,130.7z M378.4,45.9c14,0,25.3,11.3,25.3,25.3s-11.3,25.3-25.3,25.3s-25.3-11.3-25.3-25.3
			S364.4,45.9,378.4,45.9z M86.3,51.3H215v40.1H86.3V51.3z"/>
		<path d="M480.7,417.3H297.1c-0.1,0-0.3,0-0.4,0v-42.8h-42.4c0-0.1,0-0.3,0-0.4v-88.7h157.9c16.7,0,29.9-13.6,29.9-29.9v-59.1
			c0.4-16.3-13.2-29.9-29.9-29.9H77.8c-16.7,0-29.9,13.6-29.9,29.9v59.1c0,16.7,13.6,29.9,29.9,29.9h157.9v89.1h-42.8v42.8H9.3
			c-5.1,0-9.3,4.3-9.3,9.3s4.3,9.3,9.3,9.3h183.6v42.4h103.8v-42.4c0.1,0,0.3,0,0.4,0h183.6c5.1,0,9.3-4.3,9.3-9.3
			S485.7,417.3,480.7,417.3z M378.4,200.7c14,0,25.3,11.3,25.3,25.3s-11.3,25.3-25.3,25.3S353.1,240,353.1,226
			S364.4,200.7,378.4,200.7z M215.1,246.2H86.3v-40.1H215v40.1H215.1z"/>
	</g>
</g>
<g>
</g>
<g>
</g>
<g>
</g>
<g>
</g>
<g>
</g>
<g>
</g>
<g>
</g>
<g>
</g>
<g>
</g>
<g>
</g>
<g>
</g>
<g>
</g>
<g>
</g>
<g>
</g>
<g>
</g>
</svg>
