<svg xmlns="http://www.w3.org/2000/svg"  viewBox="0 0 100 100" width="150px" height="150px"><path fill="#c7ede6" d="M87.215,56.71C88.35,54.555,89,52.105,89,49.5c0-6.621-4.159-12.257-10.001-14.478 C78.999,35.015,79,35.008,79,35c0-11.598-9.402-21-21-21c-9.784,0-17.981,6.701-20.313,15.757C36.211,29.272,34.638,29,33,29 c-7.692,0-14.023,5.793-14.89,13.252C12.906,43.353,9,47.969,9,53.5C9,59.851,14.149,65,20.5,65c0.177,0,0.352-0.012,0.526-0.022 C21.022,65.153,21,65.324,21,65.5C21,76.822,30.178,86,41.5,86c6.437,0,12.175-2.972,15.934-7.614C59.612,80.611,62.64,82,66,82 c4.65,0,8.674-2.65,10.666-6.518C77.718,75.817,78.837,76,80,76c6.075,0,11-4.925,11-11C91,61.689,89.53,58.727,87.215,56.71z"/><path fill="#fff" d="M15.405,51H5.5C5.224,51,5,50.776,5,50.5S5.224,50,5.5,50h9.905c0.276,0,0.5,0.224,0.5,0.5 S15.682,51,15.405,51z"/><path fill="#fff" d="M18.5,51h-1c-0.276,0-0.5-0.224-0.5-0.5s0.224-0.5,0.5-0.5h1c0.276,0,0.5,0.224,0.5,0.5 S18.777,51,18.5,51z"/><path fill="#fff" d="M23.491,53H14.5c-0.276,0-0.5-0.224-0.5-0.5s0.224-0.5,0.5-0.5h8.991c0.276,0,0.5,0.224,0.5,0.5 S23.767,53,23.491,53z"/><path fill="#fff" d="M12.5,53h-1c-0.276,0-0.5-0.224-0.5-0.5s0.224-0.5,0.5-0.5h1c0.276,0,0.5,0.224,0.5,0.5 S12.777,53,12.5,53z"/><path fill="#fff" d="M9.5,53h-2C7.224,53,7,52.776,7,52.5S7.224,52,7.5,52h2c0.276,0,0.5,0.224,0.5,0.5S9.777,53,9.5,53 z"/><path fill="#fff" d="M15.5,55h-2c-0.276,0-0.5-0.224-0.5-0.5s0.224-0.5,0.5-0.5h2c0.276,0,0.5,0.224,0.5,0.5 S15.776,55,15.5,55z"/><path fill="#fff" d="M18.5,46c-0.177,0-0.823,0-1,0c-0.276,0-0.5,0.224-0.5,0.5c0,0.276,0.224,0.5,0.5,0.5 c0.177,0,0.823,0,1,0c0.276,0,0.5-0.224,0.5-0.5C19,46.224,18.776,46,18.5,46z"/><path fill="#fff" d="M18.5,48c-0.177,0-4.823,0-5,0c-0.276,0-0.5,0.224-0.5,0.5c0,0.276,0.224,0.5,0.5,0.5 c0.177,0,4.823,0,5,0c0.276,0,0.5-0.224,0.5-0.5C19,48.224,18.776,48,18.5,48z"/><path fill="#fff" d="M23.5,50c-0.177,0-2.823,0-3,0c-0.276,0-0.5,0.224-0.5,0.5c0,0.276,0.224,0.5,0.5,0.5 c0.177,0,2.823,0,3,0c0.276,0,0.5-0.224,0.5-0.5C24,50.224,23.776,50,23.5,50z"/><path fill="#fff" d="M70.5,22h-10c-0.276,0-0.5-0.224-0.5-0.5s0.224-0.5,0.5-0.5h10c0.276,0,0.5,0.224,0.5,0.5 S70.776,22,70.5,22z"/><path fill="#fff" d="M74.5,22h-2c-0.276,0-0.5-0.224-0.5-0.5s0.224-0.5,0.5-0.5h2c0.276,0,0.5,0.224,0.5,0.5 S74.776,22,74.5,22z"/><path fill="#fff" d="M79.5,24h-10c-0.276,0-0.5-0.224-0.5-0.5s0.224-0.5,0.5-0.5h10c0.276,0,0.5,0.224,0.5,0.5 S79.777,24,79.5,24z"/><path fill="#fff" d="M67.5,24h-1c-0.276,0-0.5-0.224-0.5-0.5s0.224-0.5,0.5-0.5h1c0.276,0,0.5,0.224,0.5,0.5 S67.776,24,67.5,24z"/><path fill="#fff" d="M64.375,24H62.5c-0.276,0-0.5-0.224-0.5-0.5s0.224-0.5,0.5-0.5h1.875c0.276,0,0.5,0.224,0.5,0.5 S64.651,24,64.375,24z"/><path fill="#fff" d="M73.5,20h-5c-0.276,0-0.5-0.224-0.5-0.5s0.224-0.5,0.5-0.5h5c0.276,0,0.5,0.224,0.5,0.5 S73.777,20,73.5,20z"/><path fill="#fff" d="M70.5,26h-2c-0.276,0-0.5-0.224-0.5-0.5s0.224-0.5,0.5-0.5h2c0.276,0,0.5,0.224,0.5,0.5 S70.776,26,70.5,26z"/><path fill="#fdfcef" d="M22.5,32.5c0,0-1.567,0-3.5,0s-3.5-1.567-3.5-3.5c0-1.781,1.335-3.234,3.055-3.455 C18.527,25.366,18.5,25.187,18.5,25c0-1.933,1.567-3.5,3.5-3.5c1.032,0,1.95,0.455,2.59,1.165c0.384-1.808,1.987-3.165,3.91-3.165 c2.209,0,4,1.791,4,4c0,0.191-0.03,0.374-0.056,0.558C32.872,23.714,33.408,23.5,34,23.5c1.228,0,2.245,0.887,2.455,2.055 C36.634,25.527,36.813,25.5,37,25.5c1.933,0,3.5,1.567,3.5,3.5s-1.567,3.5-3.5,3.5s-7.5,0-7.5,0V33h-7V32.5z"/><path fill="#472b29" d="M20.75,28c0.138,0,0.25-0.112,0.25-0.25c0-1.223-0.995-2.218-2.218-2.218 c-0.034,0.009-0.737-0.001-1.244,0.136c-0.133,0.036-0.212,0.173-0.176,0.306c0.036,0.134,0.173,0.213,0.306,0.176 c0.444-0.12,1.1-0.12,1.113-0.118c0.948,0,1.719,0.771,1.719,1.718C20.5,27.888,20.612,28,20.75,28z"/><circle cx="27.5" cy="32.5" r=".5" fill="#472b29"/><path fill="#472b29" d="M19,33h3.5c0.276,0,0.5-0.224,0.5-0.5S22.776,32,22.5,32H19c-1.654,0-3-1.346-3-3 c0-1.496,1.125-2.768,2.618-2.959c0.134-0.018,0.255-0.088,0.336-0.196s0.115-0.244,0.094-0.377C19.025,25.314,19,25.16,19,25 c0-1.654,1.346-3,3-3c0.85,0,1.638,0.355,2.219,1c0.125,0.139,0.321,0.198,0.5,0.148c0.182-0.049,0.321-0.195,0.36-0.379 C25.42,21.165,26.859,20,28.5,20c1.93,0,3.5,1.57,3.5,3.5c0,0.143-0.021,0.28-0.041,0.418c-0.029,0.203,0.063,0.438,0.242,0.54 s0.396,0.118,0.556-0.01C33.122,24.155,33.551,24,34,24c0.966,0,1.792,0.691,1.963,1.644c0.048,0.267,0.296,0.446,0.569,0.405 C36.686,26.025,36.84,26,37,26c1.654,0,3,1.346,3,3s-1.346,3-3,3h-7.5c-0.276,0-0.5,0.224-0.5,0.5s0.224,0.5,0.5,0.5H37 c2.206,0,4-1.794,4-4s-1.794-4-4-4c-0.059,0-0.116,0.002-0.174,0.006C36.412,23.82,35.289,23,34,23 c-0.349,0-0.689,0.061-1.011,0.18C32.824,20.847,30.874,19,28.5,19c-1.831,0-3.466,1.127-4.153,2.774 C23.667,21.276,22.845,21,22,21c-2.206,0-4,1.794-4,4c0,0.048,0.001,0.095,0.004,0.142C16.261,25.59,15,27.169,15,29 C15,31.206,16.794,33,19,33z"/><path fill="#472b29" d="M24.5,32c0.159,0,0.841,0,1,0c0.276,0,0.5,0.224,0.5,0.5S25.776,33,25.5,33c-0.159,0-0.841,0-1,0 c-0.276,0-0.5-0.224-0.5-0.5S24.224,32,24.5,32z"/><path fill="#836f61" d="M72.036,73h-0.42v-0.62l-2.52-3.88l-4.23-6.5l4.3-21.49l2.32-11.63l0.67-0.41l7,11.19 c0.13,0.22,0.18,0.48,0.13,0.73l-6.27,31.8C72.926,72.66,72.516,73,72.036,73z"/><path fill="#bd977c" d="M69.096,68.5l2.52,3.88V73h-12.24c-0.32,0-0.63-0.16-0.81-0.42l-4.52-6.33l0.69-0.5L52.366,62h12.5 L69.096,68.5z"/><polygon fill="#836f61" points="55.866,47.5 53.006,59.25 52.986,59.25 49.736,54.62 49.736,54.5 51.616,47.5"/><polygon fill="#bd977c" points="52.366,62 54.736,65.75 54.046,66.25 53.866,66 49.986,66 49.986,65.38 44.376,57.5 44.366,57.5 42.236,54.5 49.736,54.5 49.736,54.62 52.986,59.25 53.006,59.25 52.366,61.88"/><path fill="#836f61" d="M49.986,65.38V66h-0.12l-2.75,6.39c-0.09,0.23-0.27,0.41-0.49,0.51l-0.26-0.4l-10-10.5l1.02-3.49 l1.17-3.99l2.06-7.02h3.75l-2.13,7l2.13,3h0.01L49.986,65.38z"/><path fill="#bd977c" d="M36.366,62l10,10.5l0.26,0.4c-0.13,0.07-0.27,0.1-0.42,0.1h-11.93c-0.27,0-0.52-0.11-0.71-0.29 l-10.2-10.21l0.5-0.5H36.366z"/><path fill="#c0d078" d="M23.866,62l-0.5,0.5l-0.07-0.07c-0.27-0.26-0.36-0.65-0.25-1.01l3.59-11.09l0.6,0.2h5.13l-1.25,3.97 l-1.25,4h7.5l0.02,0.01L36.366,62H23.866z"/><polygon fill="#c0d078" points="38.556,54.52 37.386,58.51 37.366,58.5 29.866,58.5 31.116,54.5 38.486,54.5"/><path fill="#c0d078" d="M46.116,28v0.62l-2,6.88h-11.63l-0.95-0.31l2.1-6.5c0.13-0.41,0.52-0.69,0.95-0.69H46.116z"/><path fill="#836f61" d="M46.366,28c0.31,0,0.61,0.15,0.8,0.4l5.7,7.6l0.75,0.5l-1.08,3.98l-0.55,2.02h-6.62l2-7h-3.25 l2-6.88V28H46.366z"/><path fill="#c0d078" d="M63.986,34.5l-1.25,6h-10.12l-0.08-0.02l1.08-3.98l-0.75-0.5l0.72-1.45 c0.17-0.34,0.51-0.55,0.89-0.55h3.13l0.63,0.5H63.986z"/><path fill="#c0d078" d="M71.306,28c0.35,0,0.67,0.18,0.85,0.47l-0.67,0.41l-2.32,11.63l-0.05-0.01h-6.38l1.25-6h-5.75 l-0.63-0.5l1.09-5.21c0.1-0.46,0.5-0.79,0.98-0.79H71.306z"/><polygon fill="#c0d078" points="69.166,40.51 64.866,62 52.366,62 52.366,61.88 53.006,59.25 55.866,47.5 51.616,47.5 49.736,54.5 42.236,54.5 44.366,47.5 40.616,47.5 38.556,54.52 38.486,54.5 31.116,54.5 32.366,50.53 27.236,50.53 26.636,50.33 31.536,35.19 32.486,35.5 44.116,35.5 47.366,35.5 45.366,42.5 51.986,42.5 52.536,40.48 52.616,40.5 62.736,40.5 69.116,40.5"/><path fill="#472b29" d="M60.079,29.082h0.005H60.079 M34.983,29.123h0.005H34.983 M71.099,29.4l6.795,10.873L71.724,71.6	H59.595l-4.581-6.414c-0.263-0.368-0.687-0.586-1.139-0.586h-4c-0.56,0-1.066,0.334-1.287,0.849L45.952,71.6H34.455l-9.984-9.984	L34.894,29.4h11.281l5.58,7.44c0.266,0.354,0.682,0.56,1.12,0.56c0.042,0,0.084-0.002,0.126-0.006	c0.483-0.044,0.909-0.334,1.126-0.768L54.74,35.4h2.877c0.663,0,1.234-0.464,1.37-1.113l1.024-4.887H71.099 M54.851,35.179h0.005	H54.851 M71.321,28H59.687c-0.473,0-0.882,0.332-0.979,0.795L57.618,34h-3.125c-0.379,0-0.725,0.214-0.894,0.553L52.875,36l-5.7-7.6	c-0.189-0.252-0.485-0.4-0.8-0.4H34.603c-0.434,0-0.818,0.28-0.951,0.692L23.063,61.418c-0.116,0.357-0.021,0.749,0.244,1.015	l10.274,10.274C33.77,72.895,34.024,73,34.289,73h11.926c0.4,0,0.762-0.238,0.919-0.606L49.875,66h4l4.701,6.581	C58.764,72.844,59.067,73,59.39,73h12.663c0.478,0,0.889-0.338,0.981-0.807l6.265-31.805c0.049-0.249,0.001-0.508-0.133-0.723	L72.169,28.47C71.986,28.178,71.666,28,71.321,28L71.321,28z"/><path fill="#472b29" d="M46.375,73c-0.132,0-0.264-0.052-0.362-0.155l-10-10.5c-0.19-0.2-0.183-0.516,0.018-0.707	c0.2-0.189,0.516-0.184,0.707,0.018l10,10.5c0.19,0.2,0.183,0.516-0.018,0.707C46.623,72.954,46.499,73,46.375,73z"/><path fill="#472b29" d="M29.5,62.5h-5.625c-0.276,0-0.5-0.224-0.5-0.5s0.224-0.5,0.5-0.5H29.5c0.276,0,0.5,0.224,0.5,0.5	S29.776,62.5,29.5,62.5z"/><path fill="#472b29" d="M36.5,62.5h-3c-0.276,0-0.5-0.224-0.5-0.5s0.224-0.5,0.5-0.5h3c0.276,0,0.5,0.224,0.5,0.5	S36.776,62.5,36.5,62.5z"/><path fill="#472b29" d="M38.5,55h-4c-0.276,0-0.5-0.224-0.5-0.5s0.224-0.5,0.5-0.5h4c0.276,0,0.5,0.224,0.5,0.5	S38.776,55,38.5,55z"/><path fill="#472b29" d="M52,43h-6.625c-0.157,0-0.305-0.074-0.399-0.199c-0.094-0.125-0.125-0.288-0.082-0.438L46.712,36	H39.5c-0.276,0-0.5-0.224-0.5-0.5s0.224-0.5,0.5-0.5h7.875c0.157,0,0.305,0.074,0.399,0.199c0.094,0.125,0.125,0.288,0.082,0.438	L46.038,42h5.579l1.525-5.631c0.072-0.267,0.345-0.426,0.613-0.352c0.267,0.072,0.424,0.347,0.352,0.613l-1.625,6	C52.423,42.849,52.226,43,52,43z"/><path fill="#472b29" d="M64,35h-5.75c-0.276,0-0.5-0.224-0.5-0.5s0.224-0.5,0.5-0.5H64c0.276,0,0.5,0.224,0.5,0.5	S64.276,35,64,35z"/><path fill="#472b29" d="M57.5,41h-4.875c-0.276,0-0.5-0.224-0.5-0.5s0.224-0.5,0.5-0.5H57.5c0.276,0,0.5,0.224,0.5,0.5	S57.776,41,57.5,41z"/><path fill="#472b29" d="M69,41h-8.5c-0.276,0-0.5-0.224-0.5-0.5s0.224-0.5,0.5-0.5H69c0.276,0,0.5,0.224,0.5,0.5	S69.276,41,69,41z"/><path fill="#472b29" d="M50,65.875c-0.156,0-0.31-0.073-0.408-0.21l-7.75-10.875c-0.108-0.152-0.123-0.353-0.037-0.519	C41.891,54.104,42.063,54,42.25,54h7.5c0.276,0,0.5,0.224,0.5,0.5s-0.224,0.5-0.5,0.5h-6.53l7.187,10.085	c0.16,0.225,0.108,0.537-0.117,0.697C50.202,65.845,50.101,65.875,50,65.875z"/><path fill="#472b29" d="M53,59.75c-0.157,0-0.312-0.074-0.41-0.212l-3.25-4.625c-0.159-0.226-0.104-0.538,0.122-0.697	c0.226-0.159,0.538-0.104,0.697,0.122l3.25,4.625c0.159,0.226,0.104,0.538-0.122,0.697C53.2,59.721,53.1,59.75,53,59.75z"/><path fill="#472b29" d="M34.5,59h-4.625c-0.159,0-0.309-0.076-0.403-0.204s-0.122-0.294-0.074-0.446l2.296-7.318H27.25	c-0.276,0-0.5-0.224-0.5-0.5s0.224-0.5,0.5-0.5h5.125c0.159,0,0.309,0.076,0.403,0.204s0.122,0.294,0.074,0.446L30.556,58H34.5	c0.276,0,0.5,0.224,0.5,0.5S34.776,59,34.5,59z"/><path fill="#472b29" d="M44.125,36c-0.046,0-0.093-0.006-0.14-0.02c-0.265-0.077-0.417-0.354-0.34-0.62l2-6.875	c0.077-0.266,0.353-0.418,0.62-0.34c0.265,0.077,0.417,0.354,0.34,0.62l-2,6.875C44.542,35.858,44.342,36,44.125,36z"/><path fill="#472b29" d="M36.375,62.5c-0.046,0-0.094-0.006-0.141-0.02c-0.265-0.078-0.417-0.355-0.339-0.621l4.25-14.5	c0.078-0.265,0.356-0.415,0.621-0.339c0.265,0.078,0.417,0.355,0.339,0.621l-4.25,14.5C36.791,62.359,36.591,62.5,36.375,62.5z"/><path fill="#472b29" d="M54.75,66.25c-0.166,0-0.328-0.082-0.423-0.232l-2.375-3.75c-0.098-0.154-0.104-0.349-0.016-0.509	s0.256-0.259,0.438-0.259H55.5c0.276,0,0.5,0.224,0.5,0.5s-0.224,0.5-0.5,0.5h-2.216l1.889,2.982	c0.148,0.233,0.079,0.542-0.155,0.69C54.935,66.225,54.842,66.25,54.75,66.25z"/><path fill="#472b29" d="M59.5,62.5h-2c-0.276,0-0.5-0.224-0.5-0.5s0.224-0.5,0.5-0.5h2c0.276,0,0.5,0.224,0.5,0.5	S59.776,62.5,59.5,62.5z"/><path fill="#472b29" d="M64.875,62.5H62.5c-0.276,0-0.5-0.224-0.5-0.5s0.224-0.5,0.5-0.5h1.965l6.544-32.723	c0.054-0.271,0.312-0.448,0.588-0.392c0.271,0.054,0.446,0.317,0.392,0.588l-6.625,33.125C65.318,62.332,65.113,62.5,64.875,62.5z"/><path fill="#472b29" d="M62.75,41c-0.034,0-0.068-0.003-0.103-0.011c-0.271-0.056-0.444-0.321-0.387-0.591l1.25-6	c0.056-0.271,0.315-0.446,0.591-0.387c0.271,0.056,0.444,0.321,0.387,0.591l-1.25,6C63.19,40.838,62.982,41,62.75,41z"/><path fill="#472b29" d="M71.625,72.875c-0.164,0-0.324-0.08-0.419-0.228l-6.75-10.375c-0.151-0.231-0.085-0.541,0.146-0.691	c0.231-0.151,0.541-0.084,0.691,0.146l6.75,10.375c0.151,0.231,0.085,0.541-0.146,0.691C71.813,72.849,71.719,72.875,71.625,72.875z"/><path fill="#472b29" d="M52.375,62.375c-0.039,0-0.079-0.004-0.119-0.014c-0.269-0.065-0.433-0.336-0.368-0.604l3.5-14.375	c0.065-0.269,0.335-0.435,0.604-0.368c0.269,0.065,0.433,0.336,0.368,0.604l-3.5,14.375C52.805,62.222,52.601,62.375,52.375,62.375z"/><path fill="#472b29" d="M49.75,55c-0.043,0-0.086-0.005-0.13-0.017c-0.267-0.071-0.425-0.346-0.354-0.612l1.875-7	C51.201,47.152,51.398,47,51.625,47h4.25c0.276,0,0.5,0.224,0.5,0.5s-0.224,0.5-0.5,0.5h-3.866l-1.776,6.629	C50.173,54.853,49.971,55,49.75,55z"/><path fill="#472b29" d="M42.25,55c-0.048,0-0.097-0.007-0.145-0.021c-0.265-0.08-0.414-0.359-0.333-0.624L43.701,48h-3.076	c-0.276,0-0.5-0.224-0.5-0.5s0.224-0.5,0.5-0.5h3.75c0.158,0,0.307,0.075,0.402,0.202c0.094,0.127,0.123,0.292,0.077,0.443l-2.125,7	C42.663,54.861,42.465,55,42.25,55z"/><path fill="#472b29" d="M39.5,66h-4.125c-0.276,0-0.5-0.224-0.5-0.5s0.224-0.5,0.5-0.5H39.5c0.276,0,0.5,0.224,0.5,0.5	S39.776,66,39.5,66z"/><path fill="#472b29" d="M47.375,58h-3c-0.276,0-0.5-0.224-0.5-0.5s0.224-0.5,0.5-0.5h3c0.276,0,0.5,0.224,0.5,0.5	S47.651,58,47.375,58z"/><path fill="#472b29" d="M36.5,36h-4.375c-0.276,0-0.5-0.224-0.5-0.5s0.224-0.5,0.5-0.5H36.5c0.276,0,0.5,0.224,0.5,0.5	S36.776,36,36.5,36z"/><path fill="#472b29" d="M71.25,65.625c-0.017,0-0.034-0.001-0.052-0.005c-0.135-0.028-0.222-0.161-0.193-0.296l3.625-17.375	c0.028-0.135,0.16-0.224,0.296-0.193c0.135,0.028,0.222,0.161,0.193,0.296l-3.625,17.375C71.47,65.544,71.366,65.625,71.25,65.625z"/><path fill="#472b29" d="M75.375,45.875c-0.017,0-0.033-0.001-0.049-0.005c-0.136-0.027-0.224-0.159-0.196-0.294l0.875-4.375	c0.027-0.136,0.165-0.225,0.294-0.196c0.136,0.027,0.224,0.159,0.196,0.294l-0.875,4.375C75.596,45.793,75.492,45.875,75.375,45.875	z"/><g><path fill="#fdfcef" d="M61.125,84.5c0,0-3.64,0-6.125,0s-4.5-2.015-4.5-4.5c0-2.333,1.782-4.229,4.055-4.455 C54.533,75.364,54.5,75.187,54.5,75c0-2.485,2.015-4.5,4.5-4.5c1.438,0,2.703,0.686,3.527,1.736C62.667,69.6,64.829,67.5,67.5,67.5 c2.761,0,5,2.239,5,5c0,0.446-0.077,0.87-0.187,1.282c0.642-0.777,1.6-1.282,2.687-1.282c1.781,0,3.234,1.335,3.455,3.055 C78.636,75.533,78.813,75.5,79,75.5c2.485,0,4.5,2.015,4.5,4.5s-2.015,4.5-4.5,4.5s-9.5,0-9.5,0h-5.375V85h-3V84.5z"/><path fill="#472b29" d="M67.5,67c3.033,0,5.5,2.467,5.5,5.5c0,0.016,0,0.031,0,0.047C73.602,72.192,74.29,72,75,72 c1.831,0,3.411,1.261,3.858,3.005C78.905,75.002,78.952,75,79,75c2.757,0,5,2.243,5,5s-2.243,5-5,5H64.125 c-0.276,0-0.5-0.224-0.5-0.5s0.224-0.5,0.5-0.5H79c2.206,0,4-1.794,4-4s-1.794-4-4-4c-0.117,0-0.23,0.017-0.343,0.032l-0.141,0.019 c-0.021,0.003-0.041,0.004-0.062,0.004c-0.246,0-0.462-0.185-0.495-0.437C77.768,74.125,76.496,73,75,73 c-0.885,0-1.723,0.401-2.301,1.1c-0.098,0.118-0.241,0.182-0.386,0.182c-0.078,0-0.156-0.018-0.228-0.056 c-0.209-0.107-0.314-0.346-0.254-0.573C71.946,73.218,72,72.852,72,72.5c0-2.481-2.019-4.5-4.5-4.5 c-2.381,0-4.347,1.872-4.474,4.263c-0.011,0.208-0.15,0.387-0.349,0.45c-0.05,0.016-0.101,0.024-0.152,0.024 c-0.15,0-0.296-0.069-0.392-0.192C61.362,71.563,60.221,71,59,71c-2.206,0-4,1.794-4,4c0,0.117,0.017,0.23,0.032,0.343l0.019,0.141 c0.016,0.134-0.022,0.268-0.106,0.373c-0.084,0.105-0.207,0.172-0.34,0.185C52.549,76.247,51,77.949,51,80c0,2.206,1.794,4,4,4 h6.125c0.276,0,0.5,0.224,0.5,0.5s-0.224,0.5-0.5,0.5H55c-2.757,0-5-2.243-5-5c0-2.397,1.689-4.413,4.003-4.877 C54.001,75.082,54,75.041,54,75c0-2.757,2.243-5,5-5c1.176,0,2.293,0.416,3.183,1.164C62.781,68.76,64.945,67,67.5,67L67.5,67z"/><path fill="#472b29" d="M69,74c1.403,0,2.609,0.999,2.913,2.341C72.28,76.119,72.699,76,73.125,76 c1.202,0,2.198,0.897,2.353,2.068C75.681,78.022,75.874,78,76.063,78c1.529,0,2.811,1.2,2.918,2.732 C78.99,80.87,78.886,80.99,78.749,81c-0.006,0-0.012,0-0.018,0c-0.13,0-0.24-0.101-0.249-0.232 c-0.089-1.271-1.151-2.268-2.419-2.268c-0.229,0-0.47,0.042-0.738,0.127c-0.022,0.007-0.045,0.01-0.067,0.01 c-0.055,0-0.11-0.02-0.156-0.054C75.038,78.537,75,78.455,75,78.375c0-1.034-0.841-1.875-1.875-1.875 c-0.447,0-0.885,0.168-1.231,0.473c-0.047,0.041-0.106,0.063-0.165,0.063c-0.032,0-0.063-0.006-0.093-0.019 c-0.088-0.035-0.148-0.117-0.155-0.212C71.377,75.512,70.288,74.5,69,74.5c-0.208,0-0.425,0.034-0.682,0.107 c-0.023,0.007-0.047,0.01-0.07,0.01c-0.109,0-0.207-0.073-0.239-0.182c-0.038-0.133,0.039-0.271,0.172-0.309 C68.483,74.04,68.744,74,69,74L69,74z"/></g></svg>